<svg height="85.333328" viewBox="0 0 85.333328 85.333328" width="85.333328" xmlns="http://www.w3.org/2000/svg"><g transform="matrix(.13333333 0 0 -.13333333 0 85.333331)"><path d="m640 320c0-176.73-143.27-320-320-320s-320 143.27-320 320 143.27 320 320 320 320-143.27 320-320" fill="#495672"/><path d="m236.074 115c-72.617 0-131.695 59.082-131.695 131.699 0 4.614.238 9.192.707 13.719 6.871-66.285 62.883-117.957 130.988-117.969 68.114.012 124.137 51.707 130.992 118.004.469-4.523.707-9.113.707-13.754 0-24.508-6.726-47.469-18.433-67.14-2.492-1.563-4.551-3.875-5.801-6.786-.5-1.164-.84-2.359-1.031-3.558-23.973-32.84-62.754-54.215-106.434-54.215m-100.777 145.41c-.606 4.488-.918 9.074-.918 13.738.004 30.606 13.465 57.95 34.84 76.633 1.875-.926 3.586-2.261 4.992-3.988 5.219-6.434 4.242-15.879-2.191-21.105-20.325-16.504-33.29-39.774-36.723-65.278m192.32 54.031c.414.461.836.922 1.258 1.379.184-.41.367-.816.543-1.23-.598-.055-1.199-.106-1.801-.149" fill="#404a5f"/><path d="m259.699 373.09c44.731-10.641 78.106-50.91 78.074-98.942-.007-28.128-11.363-53.46-29.789-71.91-18.449-18.425-43.781-29.781-71.91-29.789-28.129.008-53.461 11.364-71.91 29.789-18.426 18.45-29.777 43.782-29.785 71.91.004 31.922 14.644 60.293 37.637 78.993 6.429 5.222 7.41 14.668 2.187 21.097-5.223 6.434-14.668 7.41-21.098 2.192-29.703-24.098-48.734-61.032-48.726-102.282.008-72.742 58.957-131.687 131.695-131.699 72.742.012 131.688 58.957 131.699 131.699-.031 62.211-43.097 114.336-101.136 128.129-8.059 1.914-16.145-3.062-18.063-11.125-1.914-8.058 3.067-16.144 11.125-18.062z" fill="#77caa9"/><path d="m319.945 256.703c-5.769 0-11.457.375-17.031 1.098-.141.859-.269 1.722-.387 2.59 1.153 8.445 3.344 16.558 6.45 24.214 3.617-.296 7.277-.449 10.972-.449h.02c3.547 0 7.054.141 10.535.414 3.062-7.648 5.219-15.746 6.351-24.14-.121-.903-.253-1.797-.398-2.688-5.445-.687-10.957-1.039-16.512-1.039m47.551 8.883c.184 2.828.274 5.684.277 8.562-.003 6.27-.445 12.434-1.293 18.469 18.747 7.082 35.454 18.309 48.973 32.551.895-.496 1.754-1.094 2.559-1.789 6.265-5.418 6.945-14.899 1.519-21.156-14.269-16.477-32.187-28.953-52.035-36.637m-95.629.203c-48.91 19.246-83.613 66.949-83.613 122.609 0 4.633.238 9.204.707 13.711 5.203-50.152 38.535-91.937 83.957-109.304-.84-5.938-1.289-12-1.313-18.16 0-.165 0-.332 0-.497 0-2.804.09-5.593.262-8.359" fill="#404a5f"/><path d="m336.855 260.43c-1.132 8.394-3.289 16.492-6.351 24.14 2.238.18 4.465.414 6.672.703.394-3.652.597-7.367.597-11.125-.003-4.656-.312-9.238-.918-13.718" fill="#394051"/><path d="m336.457 257.742c.145.891.277 1.785.398 2.688.606 4.48.915 9.062.918 13.718 0 3.758-.203 7.473-.597 11.125 10.176 1.332 19.988 3.825 29.304 7.344.848-6.035 1.29-12.199 1.293-18.469-.003-2.878-.093-5.734-.277-8.562-9.933-3.848-20.355-6.496-31.039-7.844" fill="#62a48d"/><path d="m441.137 400.328c-6.231 1.863-12.657 3.281-19.239 4.211-1.23 1.656-2.14 3.594-2.613 5.742-10.129 46.25-51.914 79.817-99.34 79.817-51.425 0-94.058-38.375-100.773-87.996-.606 4.496-.918 9.082-.922 13.75.008 28.132 11.359 53.461 29.785 71.91 18.453 18.429 43.781 29.781 71.914 29.789h.067c48.625 0 89.281-34.235 99.273-79.817 1.535-7.007 7.742-11.793 14.637-11.793 1.062 0 2.144.118 3.226.352 3.008.66 5.61 2.18 7.594 4.25 1.527-4.504 2.813-9.117 3.848-13.832 1.461-6.668-1.758-13.273-7.457-16.383" fill="#404a5f"/><path d="m396.855 349.313c-18.699-21.563-46.144-35.153-76.906-35.157-28.133.008-53.461 11.36-71.914 29.785-18.426 18.45-29.777 43.782-29.785 71.911.008 28.132 11.359 53.461 29.785 71.91 18.453 18.429 43.781 29.781 71.914 29.789 48.653.031 89.344-34.215 99.34-79.817 1.774-8.089 9.77-13.214 17.863-11.441 8.09 1.773 13.215 9.773 11.442 17.863-12.965 59.176-65.629 103.364-128.645 103.395-72.742-.012-131.687-58.957-131.699-131.699.012-72.739 58.957-131.688 131.699-131.696 39.739-.008 75.489 17.66 99.586 45.516 5.422 6.262 4.742 15.734-1.519 21.156-6.262 5.426-15.739 4.746-21.161-1.515z" fill="#c84755"/><path d="m291.066 199.648c-6.543 0-12.546 4.282-14.425 10.879-3.34 11.707-5.036 23.883-5.036 36.172 0 4.629.243 9.199.711 13.707.797-7.683 2.258-15.179 4.321-22.422 1.879-6.593 7.886-10.89 14.418-10.89 1.363 0 2.746.187 4.121.578 3.015.859 5.551 2.582 7.414 4.824.648-4.648 1.617-9.238 2.898-13.734 2.278-7.969-2.343-16.274-10.308-18.543-1.371-.383-2.754-.571-4.114-.571m25.93 114.551c-2.359.067-4.699.215-7.016.438.184.429.375.859.567 1.285.437-.473.871-.949 1.301-1.426 1.058.02 2.109.039 3.164.039.777 0 1.551-.012 2.332-.039l.105-.027 3.66 2.199v-.004z" fill="#404a5f"/><path d="m319.949 314.156c-.988 0-1.972.016-2.953.043l4.113 2.465 3.227-2.418c-1.453-.058-2.918-.09-4.387-.09" fill="#394051"/><path d="m302.527 260.391c-.613 4.539-.922 9.136-.922 13.757v.129c.004 3.743.211 7.434.61 11.063 2.238-.301 4.488-.543 6.762-.735-3.106-7.656-5.297-15.769-6.45-24.214" fill="#394051"/><path d="m308.977 284.605c-2.274.192-4.524.434-6.762.735 1.129 10.32 3.793 20.156 7.765 29.297 2.317-.223 4.657-.371 7.016-.438.981-.027 1.965-.043 2.953-.043 1.469 0 2.934.032 4.387.09l1.879-1.406c-7.18-8.356-13.039-17.871-17.238-28.235" fill="#a43f4a"/><path d="m403.301 115c-18.004 0-35.457 3.574-51.891 10.625-7.609 3.266-11.137 12.086-7.871 19.695 1.555 3.637 4.375 6.34 7.727 7.817.047-.02.093-.043.144-.063 15.926-6.836 33.5-10.625 51.875-10.625h.02c68.097.012 124.109 51.684 130.988 117.965.469-4.508.707-9.082.707-13.715 0-72.617-59.082-131.699-131.699-131.699m100.777 145.406c-5.91 43.692-39.68 78.664-82.781 86.395-.824 1.484-1.922 2.851-3.281 4.027-2.836 2.457-6.336 3.664-9.817 3.664-4.199 0-8.379-1.758-11.344-5.179-.347-.403-.695-.797-1.05-1.192-15.524-1.141-30.078-5.797-42.887-13.16-3.547 6.797-7.66 13.242-12.289 19.277 17.281 13.547 38.984 21.602 62.676 21.606 28.129-.004 53.457-11.36 71.91-29.785 18.426-18.45 29.777-43.782 29.785-71.911 0-4.664-.312-9.25-.922-13.742m-182.969 56.258v.004l5.719 3.43z" fill="#404a5f"/><path d="m324.336 314.246-3.227 2.418 5.719 3.434c.715-1.407 1.399-2.832 2.047-4.278-.422-.457-.844-.918-1.258-1.379-1.09-.082-2.183-.144-3.281-.195" fill="#394051"/><path d="m328.875 315.82c-.648 1.446-1.332 2.871-2.047 4.278l13.07 7.84c-3.835 4.906-8.019 9.542-12.527 13.863 1.301 1.457 2.641 2.875 4.02 4.258 2.914 2.91 5.996 5.64 9.238 8.179 4.629-6.035 8.742-12.48 12.289-19.277-8.953-5.148-17.055-11.617-24.043-19.141" fill="#62a48d"/><path d="m326.215 312.84-1.879 1.406c1.098.051 2.191.113 3.281.195-.472-.531-.941-1.062-1.402-1.601m95.082 33.961c-5.844 1.047-11.856 1.594-17.996 1.594-2.52 0-5.02-.094-7.496-.274.355.395.703.789 1.05 1.192 2.965 3.421 7.145 5.179 11.344 5.179 3.481 0 6.981-1.207 9.817-3.664 1.359-1.176 2.457-2.543 3.281-4.027" fill="#a43f4a"/><path d="m301.605 274.148c0 14.176-7.277 32.985-1.605 45.852-9.262 3.734-8.031 2.832-17.121 6.984-7.27-16.597-11.274-34.589-11.274-52.836 0-12.293 1.696-24.46 5.036-36.164 1.879-6.593 7.886-10.89 14.414-10.89 1.363 0 2.75.191 4.125.582 7.965 2.273 12.586 10.578 10.308 18.539-2.574 9.027-3.883 18.43-3.883 27.933" fill="#7db6d8"/><path d="m305.488 246.211c-2.527 8.863-3.883 18.223-3.883 27.937.008 28.129 11.36 53.461 29.786 71.911 18.453 18.425 43.781 29.781 71.914 29.785 28.129-.004 53.457-11.36 71.91-29.785 18.426-18.45 29.777-43.782 29.785-71.911-.008-28.128-11.359-53.46-29.785-71.91-18.453-18.425-43.781-29.781-71.91-29.789-14.27.004-27.778 2.922-40.067 8.196-7.609 3.265-16.429-.258-19.699-7.872-3.266-7.613.258-16.429 7.871-19.699 15.93-6.84 33.512-10.625 51.895-10.625 72.738.012 131.683 58.957 131.695 131.699-.012 72.739-58.957 131.688-131.695 131.696-72.742-.008-131.692-58.953-131.7-131.696 0-12.515 1.754-24.66 5.032-36.164 2.269-7.964 10.57-12.582 18.539-10.312 7.965 2.269 12.582 10.57 10.312 18.539z" fill="#7db6d8"/><path d="m286.504 335.047c-8.207 4.699-17.191 8.308-26.809 10.594-8.054 1.918-13.035 10.004-11.121 18.066 1.129 4.742 4.391 8.422 8.528 10.258.824-.363 1.691-.66 2.597-.875 14.449-3.438 27.715-9.969 39.055-18.852-4.613-6.008-8.715-12.425-12.25-19.191" fill="#404a5f"/><path d="m298.754 354.238c-11.34 8.883-24.606 15.414-39.055 18.852-.906.215-1.773.512-2.597.875 1.875.828 3.925 1.281 6.039 1.281 1.156 0 2.328-.137 3.5-.418 13.238-3.148 25.589-8.203 36.789-14.836-1.614-1.875-3.172-3.789-4.676-5.754" fill="#62a48d"/><path d="m317.449 314.469-.105.027c-.781.027-1.555.039-2.332.039-1.055 0-2.106-.019-3.164-.039-.43.477-.864.953-1.301 1.426.973 2.148 2.012 4.258 3.125 6.324l7.437-5.578z" fill="#394051"/><path d="m321.109 316.668-7.437 5.578c1.824 3.387 3.836 6.66 6.019 9.809 2.637-3.805 5.028-7.801 7.137-11.957z" fill="#394051"/><path d="m326.828 320.098c-2.109 4.156-4.5 8.152-7.137 11.957 2.364 3.402 4.93 6.656 7.68 9.746 4.508-4.321 8.692-8.957 12.527-13.863z" fill="#538777"/><path d="m310.547 315.922c-6.949 7.488-15.027 13.965-24.043 19.125 3.535 6.766 7.637 13.183 12.25 19.191 1.504 1.965 3.062 3.879 4.676 5.754 8.718-5.16 16.738-11.277 23.941-18.191-2.75-3.09-5.316-6.344-7.68-9.746-2.183-3.149-4.195-6.422-6.019-9.809-1.113-2.066-2.152-4.176-3.125-6.324" fill="#6594b2"/><path d="m259.695 373.09c31.832-7.567 56.993-29.406 69.473-57.832 3.742 3.555 7.613 7.148 12.598 8.812 4.797 1.606 9.722 2.696 14.613 3.926-16.258 36.516-48.738 64.535-89.738 74.285-8.055 1.934-16.149-3.062-18.067-11.125-1.914-8.058 3.067-16.144 11.121-18.066" fill="#77caa9"/></g></svg>